<?xml version="1.0" standalone="no"?>
<!DOCTYPE svg PUBLIC "-//W3C//DTD SVG 20010904//EN"
 "http://www.w3.org/TR/2001/REC-SVG-20010904/DTD/svg10.dtd">
<svg version="1.0" xmlns="http://www.w3.org/2000/svg"
 width="400.000000pt" height="400.000000pt" viewBox="0 0 400.000000 400.000000"
 preserveAspectRatio="xMidYMid meet">
<metadata>
Created by potrace 1.14, written by Peter Selinger 2001-2017
</metadata>
<g transform="translate(0.000000,400.000000) scale(0.100000,-0.100000)"
fill="#000000" stroke="none">
<path d="M908 3958 c-29 -50 -80 -178 -104 -261 l-17 -58 -51 2 c-75 2 -76 2
-76 -31 0 -17 -7 -45 -16 -61 -8 -17 -17 -56 -19 -87 -10 -175 -18 -223 -36
-233 -16 -8 -19 -21 -19 -75 0 -36 -6 -77 -14 -92 -7 -15 -29 -81 -49 -147
-31 -107 -40 -150 -62 -288 -6 -39 -9 -138 -20 -727 -9 -459 -16 -589 -39
-685 -11 -45 -39 -133 -46 -146 -5 -9 -12 -34 -15 -55 -25 -138 -95 -300 -203
-464 -31 -47 -67 -102 -80 -123 -14 -20 -29 -37 -33 -37 -5 0 -9 -4 -9 -10 0
-5 5 -10 11 -10 15 0 134 75 174 109 17 14 43 35 59 46 15 11 39 30 54 42 31
27 34 25 24 -13 -5 -16 -9 -74 -10 -129 l-2 -100 23 50 c53 117 245 365 283
365 11 0 12 -5 6 -17 -10 -20 -37 -128 -32 -128 2 0 -2 -9 -8 -20 -5 -12 -13
-41 -17 -65 -4 -25 -14 -74 -22 -110 -17 -70 -26 -380 -11 -380 4 0 8 8 8 18
0 10 4 22 9 27 6 6 12 24 15 40 6 34 47 128 58 133 5 2 8 8 8 14 0 5 11 24 25
42 14 18 25 36 25 40 0 12 56 89 94 129 20 20 36 40 36 43 0 14 42 64 50 59 9
-5 -13 -96 -30 -127 -5 -9 -12 -38 -16 -65 -3 -26 -10 -52 -14 -58 -8 -10 -25
-75 -22 -86 0 -3 -5 -26 -12 -50 -6 -24 -12 -73 -11 -109 0 -63 1 -65 26 -68
21 -2 28 2 32 20 9 34 74 119 175 227 48 52 100 111 116 132 16 21 33 36 37
34 4 -3 5 -26 3 -52 -3 -27 -5 -102 -5 -168 -1 -103 -3 -122 -19 -137 -10 -9
-21 -14 -24 -11 -3 4 -6 1 -6 -5 0 -7 -6 -12 -14 -12 -7 0 -19 -7 -26 -15 -11
-13 106 -15 1043 -15 l1056 0 17 58 c15 49 19 96 23 282 l1 35 28 -30 c34 -37
92 -120 92 -133 0 -5 7 -15 15 -22 18 -15 19 0 5 70 -4 25 -7 47 -5 49 7 7 70
-64 120 -137 28 -39 52 -72 55 -72 14 0 -4 149 -31 250 -17 63 -35 133 -40
155 -6 21 -17 54 -26 72 -21 44 -10 53 25 20 16 -15 33 -27 39 -27 6 0 33 -15
59 -33 67 -44 166 -95 244 -123 84 -31 98 -31 76 -1 -9 12 -31 45 -49 72 -19
28 -40 57 -48 65 -16 16 -91 166 -95 189 -2 8 -13 34 -25 58 -23 45 -21 61 4
46 20 -11 104 -90 114 -107 4 -7 49 -43 98 -80 50 -37 96 -71 103 -77 24 -20
24 -1 0 33 -12 18 -42 55 -65 81 -52 60 -179 288 -187 339 -6 33 -38 141 -53
178 -4 8 -7 17 -8 20 -2 8 -35 151 -49 210 -8 30 -12 73 -10 95 1 22 4 73 5
114 1 41 6 93 10 115 4 23 10 59 13 81 4 22 8 51 11 65 6 37 16 136 20 208 3
35 8 68 11 74 8 13 17 157 18 296 1 61 5 111 10 109 12 -4 125 -307 126 -339
0 -9 3 -19 8 -21 9 -6 8 181 -2 248 -15 103 -77 327 -133 480 -8 22 -29 65
-48 96 -21 34 -33 65 -30 78 8 44 6 167 -3 204 -6 22 -19 49 -30 60 -11 12
-22 36 -25 52 -4 17 -13 62 -21 100 -8 39 -18 86 -21 105 -9 54 -42 172 -59
210 -8 19 -37 56 -65 83 l-50 47 -1194 0 -1195 0 -24 -42z m429 -3686 c2 -48
0 -92 -4 -98 -5 -7 -38 -27 -75 -47 -67 -34 -68 -34 -68 -12 0 28 73 172 99
194 10 9 21 26 25 39 13 39 19 16 23 -76z"/>
</g>
</svg>
